<?xml version="1.0" encoding="UTF-8" standalone="no"?><!DOCTYPE svg PUBLIC "-//W3C//DTD SVG 1.1//EN" "http://www.w3.org/Graphics/SVG/1.1/DTD/svg11.dtd"><svg width="100%" height="100%" viewBox="0 0 535 364" version="1.1" xmlns="http://www.w3.org/2000/svg" xmlns:xlink="http://www.w3.org/1999/xlink" xml:space="preserve" xmlns:serif="http://www.serif.com/" style="fill-rule:evenodd;clip-rule:evenodd;stroke-linecap:round;stroke-linejoin:round;stroke-miterlimit:1.5;"><rect id="Plan-de-travail1" serif:id="Plan de travail1" x="0" y="0" width="534.316" height="363.393" style="fill:none;"/><g id="Mac"><path d="M81.363,91.067c0,-8.854 7.188,-16.043 16.042,-16.043l295.434,0c8.854,0 16.042,7.189 16.042,16.043l0,200.659l-327.518,0l0,-200.659Z"/><rect x="98.823" y="91.075" width="292.598" height="184.601" style="fill:#41494d;"/><rect x="262.054" y="91.075" width="129.367" height="184.601" style="fill:#41494d;"/><path d="M391.421,275.676l-213.101,0l120.652,-184.601l92.449,0l0,184.601Z" style="fill:#1b2d2d;fill-opacity:0.52549;"/><path d="M435.441,308.205l-380.002,0c0,0 -6.772,-2.416 -8.504,-5.131c-1.751,-2.743 -2.011,-11.33 -2.012,-11.348l400.398,0c0,0 -0.243,8.602 -1.89,11.348c-1.625,2.711 -7.972,5.124 -7.99,5.131Z" style="fill:#797979;"/></g><g id="Verre"><path d="M395.267,248.369l62.044,-49.923l34.399,74.507l-31.022,24.962l-65.421,-49.546Z" style="fill:#b0c223;stroke:#b0c223;stroke-width:5.5px;"/><path d="M392.588,243.631c0,0 -13.747,-7.644 -27.115,-5.307c-13.367,2.337 -14.871,3.099 -22.504,11.285c-7.633,8.185 -14.571,11.354 -8.346,0c6.224,-11.355 14.566,-10.416 4.475,-10.651c-10.092,-0.234 -33.07,4.336 -9.669,-5.257c23.402,-9.594 30.124,-8.15 37.617,-6.912c7.493,1.238 12.601,-6.411 6.885,-9.288c-5.716,-2.877 -11.417,-8.713 -0.234,-10.937c11.183,-2.224 20.19,12.888 26.087,7.634c5.898,-5.253 7.231,-1.309 15.614,-1.453c8.383,-0.145 8.894,5.135 8.894,5.135l-31.704,25.751Z" style="fill:#61c0fd;stroke:#61c0fd;stroke-width:5.5px;"/><ellipse cx="336.614" cy="215.052" rx="4.915" ry="4.812" style="fill:#61c0fd;stroke:#61c0fd;stroke-width:5.5px;"/><ellipse cx="392.215" cy="198.679" rx="4.915" ry="4.812" style="fill:#61c0fd;stroke:#61c0fd;stroke-width:5.5px;"/><ellipse cx="328.445" cy="273.037" rx="3.254" ry="3.555" style="fill:#61c0fd;stroke:#61c0fd;stroke-width:5.5px;"/></g></svg>