<?xml version="1.0" encoding="UTF-8" standalone="no"?><!DOCTYPE svg PUBLIC "-//W3C//DTD SVG 1.1//EN" "http://www.w3.org/Graphics/SVG/1.1/DTD/svg11.dtd"><svg width="100%" height="100%" viewBox="0 0 211 153" version="1.1" xmlns="http://www.w3.org/2000/svg" xmlns:xlink="http://www.w3.org/1999/xlink" xml:space="preserve" xmlns:serif="http://www.serif.com/" style="fill-rule:evenodd;clip-rule:evenodd;stroke-linejoin:round;stroke-miterlimit:1.41421;"><rect id="Plan-de-travail1" serif:id="Plan de travail1" x="0" y="0" width="210.606" height="152.91" style="fill:none;"/><rect x="29.56" y="23.95" width="147.447" height="111.676" style="fill:#5b6168;"/><g><g><rect x="83.18" y="96.346" width="72.158" height="15.957"/><rect x="86.011" y="102.852" width="1.103" height="9.451" style="fill:#b08e18;"/><rect x="89.452" y="102.852" width="1.103" height="9.451" style="fill:#b08e18;"/><rect x="92.894" y="102.852" width="1.103" height="9.451" style="fill:#b08e18;"/><rect x="96.336" y="102.852" width="1.103" height="9.451" style="fill:#b08e18;"/><rect x="99.778" y="102.852" width="1.103" height="9.451" style="fill:#b08e18;"/><rect x="103.22" y="102.852" width="1.103" height="9.451" style="fill:#b08e18;"/><rect x="106.662" y="102.852" width="1.103" height="9.451" style="fill:#b08e18;"/><rect x="110.103" y="102.852" width="1.103" height="9.451" style="fill:#b08e18;"/><rect x="113.545" y="102.852" width="1.103" height="9.451" style="fill:#b08e18;"/><rect x="116.987" y="102.852" width="1.103" height="9.451" style="fill:#b08e18;"/><rect x="120.429" y="102.852" width="1.103" height="9.451" style="fill:#b08e18;"/><rect x="123.871" y="102.852" width="1.103" height="9.451" style="fill:#b08e18;"/><rect x="127.313" y="102.852" width="1.103" height="9.451" style="fill:#b08e18;"/><rect x="130.754" y="102.852" width="1.103" height="9.451" style="fill:#b08e18;"/><rect x="134.196" y="102.852" width="1.103" height="9.451" style="fill:#b08e18;"/><rect x="137.638" y="102.852" width="1.103" height="9.451" style="fill:#b08e18;"/><rect x="141.08" y="102.852" width="1.103" height="9.451" style="fill:#b08e18;"/><rect x="144.522" y="102.852" width="1.103" height="9.451" style="fill:#b08e18;"/><rect x="147.964" y="102.852" width="1.103" height="9.451" style="fill:#b08e18;"/><rect x="151.405" y="102.852" width="1.103" height="9.451" style="fill:#b08e18;"/></g><path d="M114.498,84.146l7.113,8.595l6.003,-5.517l1.248,7.219l11.869,-4.141l-7.473,9.453l7.224,3.018l-7.362,3.876l7.114,8.595l-11.732,-2.753l-1.538,7.383l-5.797,-4.823l-7.473,9.453l0.222,-11.155l-8.175,1.545l3.779,-6.857l-11.731,-2.753l11.869,-4.141l-3.515,-6.428l8.133,0.585l0.222,-11.154Z" style="fill:#5b6168;"/></g><rect x="43.317" y="31.316" width="64.981" height="29.393"/><rect x="43.317" y="68.228" width="16.21" height="10.285" style="fill:#848285;"/><rect x="43.317" y="68.228" width="16.21" height="10.285" style="fill:#848285;"/><rect x="68.422" y="68.228" width="16.21" height="10.285" style="fill:#848285;"/><rect x="92.087" y="68.228" width="16.21" height="10.285" style="fill:#848285;"/><g><rect x="117.562" y="33.133" width="4.161" height="1.004" style="fill:#a3a2a3;"/><rect x="117.562" y="38.219" width="4.161" height="1.004" style="fill:#a3a2a3;"/><rect x="117.562" y="34.137" width="4.161" height="4.082" style="fill:#b08e18;"/></g><g><path d="M117.975,44.924l0,4.161l1.004,0l0,-4.161l-1.004,0Z" style="fill:#a3a2a3;"/><path d="M123.061,44.924l0,4.161l1.004,0l0,-4.161l-1.004,0Z" style="fill:#a3a2a3;"/><path d="M118.979,44.924l0,4.161l4.082,0l0,-4.161l-4.082,0Z" style="fill:#b08e18;"/></g><g><path d="M130.549,44.924l0,4.161l1.004,0l0,-4.161l-1.004,0Z" style="fill:#a3a2a3;"/><path d="M135.636,44.924l0,4.161l1.004,0l0,-4.161l-1.004,0Z" style="fill:#a3a2a3;"/><path d="M131.553,44.924l0,4.161l4.083,0l0,-4.161l-4.083,0Z" style="fill:#b08e18;"/></g><g><path d="M117.975,53.307l0,4.161l1.004,0l0,-4.161l-1.004,0Z" style="fill:#a3a2a3;"/><path d="M123.061,53.307l0,4.161l1.004,0l0,-4.161l-1.004,0Z" style="fill:#a3a2a3;"/><path d="M118.979,53.307l0,4.161l4.082,0l0,-4.161l-4.082,0Z" style="fill:#b08e18;"/></g><g><rect x="126.538" y="33.133" width="4.161" height="1.004" style="fill:#a3a2a3;"/><rect x="126.538" y="38.219" width="4.161" height="1.004" style="fill:#a3a2a3;"/><rect x="126.538" y="34.137" width="4.161" height="4.082" style="fill:#b08e18;"/></g><g><rect x="135.514" y="33.133" width="4.161" height="1.004" style="fill:#a3a2a3;"/><rect x="135.514" y="38.219" width="4.161" height="1.004" style="fill:#a3a2a3;"/><rect x="135.514" y="34.137" width="4.161" height="4.082" style="fill:#b08e18;"/></g><g><rect x="144.49" y="33.133" width="4.161" height="1.004" style="fill:#a3a2a3;"/><rect x="144.49" y="38.219" width="4.161" height="1.004" style="fill:#a3a2a3;"/><rect x="144.49" y="34.137" width="4.161" height="4.082" style="fill:#b08e18;"/></g><g><rect x="153.467" y="33.133" width="5.085" height="1.004" style="fill:#a3a2a3;"/><rect x="153.467" y="38.219" width="5.085" height="1.004" style="fill:#a3a2a3;"/><rect x="153.467" y="34.137" width="5.085" height="4.082" style="fill:#b08e18;"/></g><path d="M41.773,119.048c2.812,0 5.095,2.283 5.095,5.095c0,2.812 -2.283,5.096 -5.095,5.096c-2.812,0 -5.095,-2.284 -5.095,-5.096c0,-2.812 2.283,-5.095 5.095,-5.095Zm0,3.742c0.761,0 1.379,0.606 1.379,1.353c0,0.747 -0.618,1.353 -1.379,1.353c-0.761,0 -1.379,-0.606 -1.379,-1.353c0,-0.747 0.618,-1.353 1.379,-1.353Z" style="fill:#c6ac31;"/><path d="M166.173,117.54c2.812,0 5.096,2.283 5.096,5.095c0,2.812 -2.284,5.096 -5.096,5.096c-2.812,0 -5.095,-2.284 -5.095,-5.096c0,-2.812 2.283,-5.095 5.095,-5.095Zm0,3.742c0.761,0 1.379,0.606 1.379,1.353c0,0.747 -0.618,1.353 -1.379,1.353c-0.761,0 -1.379,-0.606 -1.379,-1.353c0,-0.747 0.618,-1.353 1.379,-1.353Z" style="fill:#c6ac31;"/><circle cx="41.773" cy="124.143" r="1.508" style="fill:#efefef;"/><circle cx="166.173" cy="122.996" r="1.508" style="fill:#efefef;"/><g><rect x="115.099" y="69.661" width="4.161" height="1.004" style="fill:#a3a2a3;"/><rect x="115.099" y="74.747" width="4.161" height="1.004" style="fill:#a3a2a3;"/><rect x="115.099" y="70.665" width="4.161" height="4.082"/></g><g><rect x="45.156" y="88.092" width="4.161" height="1.004" style="fill:#a3a2a3;"/><rect x="45.156" y="93.178" width="4.161" height="1.004" style="fill:#a3a2a3;"/><rect x="45.156" y="89.096" width="4.161" height="4.082"/></g><g><rect x="55.047" y="88.092" width="4.161" height="1.004" style="fill:#a3a2a3;"/><rect x="55.047" y="93.178" width="4.161" height="1.004" style="fill:#a3a2a3;"/><rect x="55.047" y="89.096" width="4.161" height="4.082"/></g><g><rect x="45.06" y="98.816" width="4.161" height="1.004" style="fill:#a3a2a3;"/><rect x="45.06" y="103.903" width="4.161" height="1.004" style="fill:#a3a2a3;"/><rect x="45.06" y="99.82" width="4.161" height="4.082"/></g><g><rect x="55.055" y="98.666" width="4.161" height="1.004" style="fill:#a3a2a3;"/><rect x="55.055" y="103.752" width="4.161" height="1.004" style="fill:#a3a2a3;"/><rect x="55.055" y="99.67" width="4.161" height="4.082"/></g></svg>