<svg xmlns="http://www.w3.org/2000/svg" xmlns:xlink="http://www.w3.org/1999/xlink" viewBox="0 0 592 270" fill-rule="evenodd" stroke-linecap="round" stroke-linejoin="round" stroke-miterlimit="1.5" xmlns:v="https://vecta.io/nano"><style><![CDATA[.B{fill:#a3a2a3}.C{fill:#b08e18}.D{fill:#5b6168}]]></style><g class="D"><use xlink:href="#B" stroke="#000" stroke-width=".24"/><use xlink:href="#B"/></g><path d="M321.983 127.637h118.374v18.462H321.983z" fill="#a8a8a5"/><path d="M330.423 134.839h2.039v11.26h-2.039zm29.288 0h2.039v11.26h-2.039zm58.574 0h2.039v11.26h-2.039zm-29.287 0h2.039v11.26h-2.039z" fill="#424242"/><path d="M32.713 163.449h29.544v6.533H32.713z"/><g class="C"><use xlink:href="#C"/><use xlink:href="#C" x="1.409"/><use xlink:href="#C" x="2.818"/><use xlink:href="#C" x="4.227"/><use xlink:href="#C" x="5.636"/><use xlink:href="#C" x="7.046"/><use xlink:href="#C" x="8.455"/><use xlink:href="#C" x="9.864"/><use xlink:href="#C" x="11.273"/><use xlink:href="#C" x="12.682"/><use xlink:href="#C" x="14.092"/><use xlink:href="#C" x="15.501"/><use xlink:href="#C" x="16.91"/><use xlink:href="#C" x="18.319"/><path d="M53.6 166.113h.452v3.87H53.6z"/><use xlink:href="#C" x="21.138"/><use xlink:href="#C" x="22.547"/><use xlink:href="#C" x="23.956"/><use xlink:href="#C" x="25.365"/><use xlink:href="#C" x="26.774"/></g><path d="M32.713 184.155h29.544v6.533H32.713z"/><g class="C"><use xlink:href="#C" y="20.706"/><use xlink:href="#C" x="1.409" y="20.706"/><use xlink:href="#C" x="2.818" y="20.706"/><use xlink:href="#C" x="4.227" y="20.706"/><use xlink:href="#C" x="5.636" y="20.706"/><use xlink:href="#C" x="7.046" y="20.706"/><use xlink:href="#C" x="8.455" y="20.706"/><use xlink:href="#C" x="9.864" y="20.706"/><use xlink:href="#C" x="11.273" y="20.706"/><use xlink:href="#C" x="12.682" y="20.706"/><use xlink:href="#C" x="14.092" y="20.706"/><use xlink:href="#C" x="15.501" y="20.706"/><use xlink:href="#C" x="16.91" y="20.706"/><use xlink:href="#C" x="18.319" y="20.706"/><path d="M53.6 186.819h.452v3.87H53.6z"/><use xlink:href="#C" x="21.138" y="20.706"/><use xlink:href="#C" x="22.547" y="20.706"/><use xlink:href="#C" x="23.956" y="20.706"/><use xlink:href="#C" x="25.365" y="20.706"/><use xlink:href="#C" x="26.774" y="20.706"/></g><path d="M452.274 177.819h29.544v6.533h-29.544z"/><g class="C"><use xlink:href="#C" x="419.561" y="14.37"/><use xlink:href="#C" x="420.97" y="14.37"/><use xlink:href="#C" x="422.379" y="14.37"/><use xlink:href="#C" x="423.788" y="14.37"/><use xlink:href="#C" x="425.198" y="14.37"/><use xlink:href="#C" x="426.607" y="14.37"/><use xlink:href="#C" x="428.016" y="14.37"/><use xlink:href="#C" x="429.425" y="14.37"/><use xlink:href="#C" x="430.834" y="14.37"/><use xlink:href="#C" x="432.244" y="14.37"/><use xlink:href="#C" x="433.653" y="14.37"/><use xlink:href="#C" x="435.062" y="14.37"/><use xlink:href="#C" x="436.471" y="14.37"/><use xlink:href="#C" x="437.88" y="14.37"/><use xlink:href="#C" x="439.29" y="14.37"/><use xlink:href="#C" x="440.699" y="14.37"/><use xlink:href="#C" x="442.108" y="14.37"/><use xlink:href="#C" x="443.517" y="14.37"/><use xlink:href="#C" x="444.926" y="14.37"/><use xlink:href="#C" x="446.336" y="14.37"/></g><path d="M332.912 84.391h29.544v6.533h-29.544z"/><g class="C"><use xlink:href="#C" x="300.199" y="-79.058"/><use xlink:href="#C" x="301.608" y="-79.058"/><use xlink:href="#C" x="303.017" y="-79.058"/><use xlink:href="#C" x="304.427" y="-79.058"/><use xlink:href="#C" x="305.836" y="-79.058"/><use xlink:href="#C" x="307.245" y="-79.058"/><use xlink:href="#C" x="308.654" y="-79.058"/><use xlink:href="#C" x="310.063" y="-79.058"/><use xlink:href="#C" x="311.473" y="-79.058"/><use xlink:href="#C" x="312.882" y="-79.058"/><use xlink:href="#C" x="314.291" y="-79.058"/><use xlink:href="#C" x="315.7" y="-79.058"/><use xlink:href="#C" x="317.109" y="-79.058"/><use xlink:href="#C" x="318.519" y="-79.058"/><use xlink:href="#C" x="319.928" y="-79.058"/><use xlink:href="#C" x="321.337" y="-79.058"/><use xlink:href="#C" x="322.746" y="-79.058"/><use xlink:href="#C" x="324.155" y="-79.058"/><use xlink:href="#C" x="325.565" y="-79.058"/><use xlink:href="#C" x="326.974" y="-79.058"/></g><path d="M122.978 102.341h105.509v59.379H122.978z" fill="#254c40"/><path d="M145.33 115.871h14.693v23.778H145.33zm339.605-58.287h25.456v23.778h-25.456zm-8.234 55.922h20.962V146.1h-20.962z"/><path d="M238.297 188.463h25.456v23.778h-25.456zm28.388-93.162h20.962v20.569h-20.962zM114.575 72.4h12.046v11.821h-12.046zm-58.102 50.87h12.046v11.821H56.473zm95.555-50.87h12.046v11.821h-12.046zm38.871 0h12.046v11.821h-12.046zm75.786 45.129h20.962v20.569h-20.962zm0 22.227h20.962v20.569h-20.962zm166.717-54.739h20.962v20.569h-20.962zm15.154 60.957h20.962v20.569h-20.962z" fill="#848285"/><path d="M135.155 187.351h33.085v26.35h-33.085zm51.584 0h33.085v26.35h-33.085zm-10.303-72.368h33.085v26.35h-33.085zm203.87-60.289h33.085v20.569h-33.085z"/><g class="B"><use xlink:href="#D"/><use xlink:href="#D" y="5.086"/></g><use xlink:href="#E" class="C"/><g class="B"><use xlink:href="#D" x="-369.569" y="59.044"/><use xlink:href="#D" x="-369.569" y="64.13"/></g><use xlink:href="#E" x="-369.569" y="59.044"/><g class="B"><use xlink:href="#D" x="-363.329" y="59.044"/><use xlink:href="#D" x="-363.329" y="64.13"/></g><use xlink:href="#E" x="-363.329" y="59.044"/><g class="B"><use xlink:href="#D" x="-357.09" y="59.044"/><use xlink:href="#D" x="-357.09" y="64.13"/></g><use xlink:href="#E" x="-357.09" y="59.044"/><g class="B"><use xlink:href="#D" x="-350.85" y="59.044"/><use xlink:href="#D" x="-350.85" y="64.13"/></g><use xlink:href="#E" x="-350.85" y="59.044"/><g class="B"><use xlink:href="#D" x="-350.85" y="84.349"/><use xlink:href="#D" x="-350.85" y="89.436"/></g><use xlink:href="#E" x="-350.85" y="84.349"/><path d="M63.81 139.288h4.161v1.004H63.81zm0 5.087h4.161v1.004H63.81z" class="B"/><path d="M63.81 140.292h4.161v4.082H63.81z"/><g class="B"><use xlink:href="#D" x="-363.061" y="84.349"/><use xlink:href="#D" x="-363.061" y="89.436"/></g><use xlink:href="#E" x="-363.061" y="84.349"/><g class="B"><use xlink:href="#D" x="-369.167" y="84.349"/><use xlink:href="#D" x="-369.167" y="89.436"/></g><use xlink:href="#E" x="-369.167" y="84.349"/><g class="B"><use xlink:href="#D" x="5.281"/><use xlink:href="#D" x="5.281" y="5.086"/></g><use xlink:href="#E" x="5.281" class="C"/><g class="B"><use xlink:href="#D" x="10.561"/><use xlink:href="#D" x="10.561" y="5.086"/></g><use xlink:href="#E" x="10.561" class="C"/><g class="B"><use xlink:href="#D" x="15.841"/><use xlink:href="#D" x="15.841" y="5.086"/></g><use xlink:href="#E" x="15.841" class="C"/><g class="B"><use xlink:href="#D" x="21.122"/><use xlink:href="#D" x="21.122" y="5.086"/></g><use xlink:href="#E" x="21.122" class="C"/><g class="B"><use xlink:href="#D" x="26.402"/><use xlink:href="#D" x="26.402" y="5.086"/></g><use xlink:href="#E" x="26.402" class="C"/><g class="B"><use xlink:href="#D" x="31.682"/><use xlink:href="#D" x="31.682" y="5.086"/></g><use xlink:href="#E" x="31.682" class="C"/><g class="B"><use xlink:href="#D" x="36.963"/><use xlink:href="#D" x="36.963" y="5.086"/></g><use xlink:href="#E" x="36.963" class="C"/><path d="M452.399 191.981a2.62 2.62 0 0 1 2.617 2.617 2.62 2.62 0 0 1-2.617 2.617 2.62 2.62 0 0 1-2.618-2.617 2.62 2.62 0 0 1 2.618-2.617zm0 1.922c.391 0 .708.311.708.695s-.317.695-.708.695-.709-.311-.709-.695.318-.695.709-.695zm17.845-128.491a2.62 2.62 0 0 1 2.617 2.617 2.62 2.62 0 0 1-2.617 2.617 2.62 2.62 0 0 1-2.617-2.617 2.62 2.62 0 0 1 2.617-2.617zm0 1.922c.391 0 .708.311.708.695s-.317.695-.708.695-.709-.311-.709-.695.318-.695.709-.695zm-140.655-.963a2.62 2.62 0 0 1 2.617 2.617 2.62 2.62 0 0 1-2.617 2.617 2.62 2.62 0 0 1-2.617-2.617 2.62 2.62 0 0 1 2.617-2.617zm0 1.922c.391 0 .709.311.709.695s-.318.695-.709.695-.708-.311-.708-.695.317-.695.708-.695zM37.037 111.056a2.62 2.62 0 0 1 2.618 2.618 2.62 2.62 0 0 1-2.618 2.617 2.62 2.62 0 0 1-2.617-2.617 2.62 2.62 0 0 1 2.617-2.618zm0 1.923c.391 0 .709.311.709.695s-.318.695-.709.695-.708-.312-.708-.695.317-.695.708-.695zm257.729 91.434c1.364 0 2.472 2.523 2.472 5.63s-1.108 5.631-2.472 5.631-2.472-2.523-2.472-5.631 1.107-5.63 2.472-5.63zm0 4.135c.369 0 .669.67.669 1.495s-.3 1.496-.669 1.496-.669-.67-.669-1.496.299-1.495.669-1.495zM59.953 195.77c1.364 0 2.472 2.523 2.472 5.631s-1.108 5.63-2.472 5.63-2.472-2.523-2.472-5.63 1.107-5.631 2.472-5.631zm0 4.135c.369 0 .669.67.669 1.496s-.3 1.495-.669 1.495-.67-.67-.67-1.495.3-1.496.67-1.496z" fill="#c6ac31"/><g fill="#c3c3c1"><ellipse cx="528.632" cy="51.381" rx="1.421" ry="1.326"/><ellipse cx="524.636" cy="54.211" rx="1.421" ry="1.326"/><ellipse cx="520.348" cy="50.963" rx="1.421" ry="1.326"/><ellipse cx="528.632" cy="56.566" rx="1.421" ry="1.326"/><ellipse cx="524.636" cy="59.395" rx="1.421" ry="1.326"/><ellipse cx="520.348" cy="56.147" rx="1.421" ry="1.326"/><ellipse cx="528.632" cy="61.75" rx="1.421" ry="1.326"/><ellipse cx="524.636" cy="64.579" rx="1.421" ry="1.326"/><ellipse cx="520.348" cy="61.331" rx="1.421" ry="1.326"/><ellipse cx="528.632" cy="66.934" rx="1.421" ry="1.326"/><ellipse cx="524.636" cy="69.763" rx="1.421" ry="1.326"/><ellipse cx="520.348" cy="66.515" rx="1.421" ry="1.326"/><ellipse cx="528.632" cy="72.118" rx="1.421" ry="1.326"/><ellipse cx="524.636" cy="74.947" rx="1.421" ry="1.326"/><ellipse cx="520.348" cy="71.699" rx="1.421" ry="1.326"/><ellipse cx="528.632" cy="77.302" rx="1.421" ry="1.326"/><ellipse cx="524.636" cy="80.131" rx="1.421" ry="1.326"/><ellipse cx="520.348" cy="76.883" rx="1.421" ry="1.326"/><ellipse cx="528.632" cy="82.486" rx="1.421" ry="1.326"/><ellipse cx="524.636" cy="85.315" rx="1.421" ry="1.326"/><ellipse cx="520.348" cy="82.067" rx="1.421" ry="1.326"/><ellipse cx="528.632" cy="87.67" rx="1.421" ry="1.326"/><ellipse cx="524.636" cy="90.499" rx="1.421" ry="1.326"/><ellipse cx="520.348" cy="87.251" rx="1.421" ry="1.326"/><ellipse cx="528.632" cy="92.854" rx="1.421" ry="1.326"/><ellipse cx="524.636" cy="95.683" rx="1.421" ry="1.326"/><ellipse cx="520.348" cy="92.435" rx="1.421" ry="1.326"/><ellipse cx="528.632" cy="98.038" rx="1.421" ry="1.326"/><ellipse cx="524.636" cy="100.867" rx="1.421" ry="1.326"/><ellipse cx="520.348" cy="97.619" rx="1.421" ry="1.326"/><path d="M534.148 49.443h8.07v1.866h5.089c1.41 0 2.556 1.646 2.556 3.674v12.033c0 2.027-1.146 3.674-2.556 3.674h-5.089v2.175h-8.07V49.443z"/><use xlink:href="#F"/></g><path d="M540.687 54.058h8.937v13.987h-8.937z" class="D"/><g class="C"><use xlink:href="#G"/><use xlink:href="#G" y="1.672"/><use xlink:href="#G" y="3.343"/><use xlink:href="#G" y="5.014"/><use xlink:href="#G" y="6.686"/><use xlink:href="#G" y="8.357"/></g><g fill="#c3c3c1"><path d="M534.148 78.385h8.07v1.866h5.089c1.41 0 2.556 1.646 2.556 3.674v12.033c0 2.027-1.146 3.674-2.556 3.674h-5.089v2.175h-8.07V78.385z"/><use xlink:href="#F" y="28.942"/></g><path d="M540.687 83h8.937v13.987h-8.937z" class="D"/><g class="C"><use xlink:href="#G" y="28.942"/><use xlink:href="#G" y="30.614"/><use xlink:href="#G" y="32.285"/><use xlink:href="#G" y="33.956"/><use xlink:href="#G" y="35.628"/><use xlink:href="#G" y="37.299"/></g><defs ><path id="B" d="M27.293 69.005l218.031-1.68 8.534 4.067 68.237.031-.158-12.225 31.261-13.73 146.028-.544 18.858-7.668 15.934-.095v109.022l-30.042.361-19.704 53.328-39.816-1.02.818-58.553H319.335v60.211h-16v54.528H179.734v-29.084H27.293V69.005z"/><path id="C" d="M33.872 166.113h.452v3.87h-.452z"/><path id="D" d="M420.766 54.939h4.161v1.004h-4.161z"/><path id="E" d="M420.766 55.943h4.161v4.082h-4.161z"/><path id="F" d="M544.907 61.811a.5.5 0 0 0-.498-.498h-3.224a.5.5 0 0 0-.498.498v.997a.5.5 0 0 0 .498.498h3.224a.5.5 0 0 0 .498-.498v-.997z"/><path id="G" d="M543.634 56.498h5.991v.75h-5.991z"/></defs></svg>