<?xml version="1.0" encoding="UTF-8" standalone="no"?><!DOCTYPE svg PUBLIC "-//W3C//DTD SVG 1.1//EN" "http://www.w3.org/Graphics/SVG/1.1/DTD/svg11.dtd"><svg width="100%" height="100%" viewBox="0 0 473 305" version="1.1" xmlns="http://www.w3.org/2000/svg" xmlns:xlink="http://www.w3.org/1999/xlink" xml:space="preserve" xmlns:serif="http://www.serif.com/" style="fill-rule:evenodd;clip-rule:evenodd;stroke-linecap:round;stroke-linejoin:round;stroke-miterlimit:1.5;"><rect id="Plan-de-travail1" serif:id="Plan de travail1" x="0" y="0" width="472.452" height="304.695" style="fill:none;"/><g id="Mac"><path d="M69.567,60.769c0,-8.854 7.188,-16.042 16.042,-16.042l295.434,0c8.855,0 16.043,7.188 16.043,16.042l0,200.66l-327.519,0l0,-200.66Z"/><rect x="87.027" y="60.778" width="292.598" height="184.601" style="fill:#41494d;"/><rect x="250.258" y="60.778" width="129.367" height="184.601" style="fill:#41494d;"/><path d="M379.625,245.379l-213.1,0l120.652,-184.601l92.448,0l0,184.601Z" style="fill:#1b2d2d;fill-opacity:0.52549;"/><path d="M423.646,277.908l-380.002,0c0,0 -6.772,-2.417 -8.505,-5.131c-1.751,-2.744 -2.011,-11.33 -2.012,-11.348l400.398,0c0,0 -0.243,8.601 -1.89,11.348c-1.625,2.711 -7.971,5.124 -7.989,5.131Z" style="fill:#797979;"/></g><g><path id="fond-icone" serif:id="fond icone" d="M290.851,115.499c0,-5.066 -4.114,-9.18 -9.18,-9.18l-82.629,0c-5.067,0 -9.18,4.114 -9.18,9.18l0,80.705c0,5.067 4.113,9.18 9.18,9.18l82.629,0c5.066,0 9.18,-4.113 9.18,-9.18l0,-80.705Z" style="fill:#c0c0c0;"/><g id="barre-progession" serif:id="barre progession"><rect x="206.337" y="189.292" width="3.116" height="4.105" style="fill:#515151;"/><rect x="220.249" y="189.292" width="3.116" height="4.105" style="fill:#515151;"/><rect x="215.611" y="189.292" width="3.116" height="4.105" style="fill:#515151;"/><rect x="224.886" y="189.292" width="3.116" height="4.105" style="fill:#515151;"/><rect x="229.523" y="189.292" width="3.116" height="4.105" style="fill:#515151;"/><rect x="234.161" y="189.292" width="3.116" height="4.105" style="fill:#515151;"/><rect x="238.798" y="189.292" width="3.116" height="4.105" style="fill:#515151;"/><rect x="243.435" y="189.292" width="3.116" height="4.105" style="fill:#515151;"/><rect x="248.073" y="189.292" width="3.116" height="4.105" style="fill:#515151;"/><rect x="252.71" y="189.292" width="3.116" height="4.105" style="fill:#515151;"/><rect x="257.347" y="189.292" width="3.116" height="4.105" style="fill:#515151;"/><rect x="261.985" y="189.292" width="3.116" height="4.105" style="fill:#515151;"/><rect x="266.622" y="189.292" width="3.116" height="4.105" style="fill:#515151;"/><rect x="271.259" y="189.292" width="3.116" height="4.105" style="fill:#515151;"/><rect x="210.974" y="189.292" width="3.116" height="4.105" style="fill:#515151;"/></g><g id="soleil"><path d="M240.356,135.74c7.053,0 12.779,5.726 12.779,12.779c0,7.053 -5.726,12.78 -12.779,12.78c-7.053,0 -12.779,-5.727 -12.779,-12.78c0,-7.053 5.726,-12.779 12.779,-12.779Zm0,6.39c3.527,0 6.39,2.863 6.39,6.389c0,3.527 -2.863,6.39 -6.39,6.39c-3.526,0 -6.389,-2.863 -6.389,-6.39c0,-3.526 2.863,-6.389 6.389,-6.389Z" style="fill:#efefef;"/><path d="M259.325,148.519l7.913,0" style="fill:#efefef;stroke:#efefef;stroke-width:5.5px;"/><path d="M213.475,148.519l7.912,0" style="fill:#efefef;stroke:#efefef;stroke-width:5.5px;"/><path d="M240.514,175.851l0,-7.913" style="fill:#efefef;stroke:#efefef;stroke-width:5.5px;"/><path d="M240.514,129.464l0,-7.913" style="fill:#efefef;stroke:#efefef;stroke-width:5.5px;"/><path d="M254.027,135.059l5.595,-5.595" style="fill:#efefef;stroke:#efefef;stroke-width:5.5px;"/><path d="M254.027,162.343l5.595,5.595" style="fill:#efefef;stroke:#efefef;stroke-width:5.5px;"/><path d="M220.823,167.938l5.595,-5.595" style="fill:#efefef;stroke:#efefef;stroke-width:5.5px;"/><path d="M220.823,129.464l5.595,5.595" style="fill:#efefef;stroke:#efefef;stroke-width:5.5px;"/></g><g id="sens-interdit" serif:id="sens interdit"><circle cx="293.04" cy="100.64" r="26.214" style="fill:#d72104;"/><rect x="274.466" y="97.137" width="37.148" height="7.006" style="fill:#efefef;"/></g></g></svg>